#!OML:ASF H:\Dans Jumps\Project 1\Capture day 1\Session 1\subject.ASF
:FULLY-SPECIFIED
:DEGREES
383
root 0.279964 15.1222 2.35829 -7.915 1.30627 -2.89174
lowerback 10.2909 1.28187 -1.14759
upperback 5.36236 1.61775 1.27175
thorax -0.261555 0.773696 1.79263
lowerneck -11.6862 -1.50614 -1.49228
upperneck 30.4542 -2.55733 2.51025
head 11.9644 -0.991561 0.85608
rclavicle 7.45443e-016 3.77691e-015
rhumerus -14.8671 -9.74008 -83.1941
rradius 27.4401
rwrist 33.4191
rhand -27.0878 -29.7638
rfingers 7.12502
rthumb -0.504891 -59.7429
lclavicle 7.45443e-016 3.77691e-015
lhumerus -21.2224 1.0607 89.5158
lradius 16.3158
lwrist 11.422
lhand -27.3851 -5.78821
lfingers 7.12502
lthumb -0.792039 24.1901
rfemur -35.2496 -3.27662 22.1614
rtibia 67.0039
rfoot -21.5035 -1.65659
rtoes 3.47769
lfemur -37.566 4.04637 -16.2797
ltibia 65.0319
lfoot -15.9837 7.87435
ltoes -10.1929
384
root 0.292994 15.2041 2.42567 -7.68077 1.08319 -2.75653
lowerback 10.0674 1.23894 -1.14625
upperback 5.30877 1.56136 1.19554
thorax -0.191257 0.746053 1.72261
lowerneck -11.6741 -1.41033 -1.41566
upperneck 30.5256 -2.39907 2.37342
head 11.9832 -0.929567 0.813282
rclavicle 1.16538e-014 6.36111e-015
rhumerus -14.4532 -9.23659 -83.4068
rradius 27.8882
rwrist 32.7855
rhand -27.0378 -29.6589
rfingers 7.12502
rthumb -0.456564 -59.6382
lclavicle 1.16538e-014 6.36111e-015
lhumerus -21.1204 -0.370719 89.8796
lradius 17.2454
lwrist 13.4368
lhand -27.8512 -6.06664
lfingers 7.12502
lthumb -1.24217 23.9095
rfemur -34.7526 -3.15897 22.034
rtibia 66.1394
rfoot -21.2905 -1.58496
rtoes 3.95673
lfemur -36.8978 4.08398 -16.3991
ltibia 64.112
lfoot -15.9882 7.9388
ltoes -10.154
385
root 0.30606 15.2943 2.48947 -7.43394 0.884945 -2.63277
lowerback 9.85701 1.17891 -1.16056
upperback 5.25111 1.48131 1.14704
thorax -0.132486 0.706053 1.69186
lowerneck -11.6524 -1.30442 -1.35663
upperneck 30.6108 -2.22132 2.23373
head 12.0057 -0.861305 0.775184
rclavicle -2.71093e-014 -1.82882e-014
rhumerus -14.0728 -8.79033 -83.5738
rradius 28.2657
rwrist 32.2657
rhand -26.9609 -29.5071
rfingers 7.12502
rthumb -0.382285 -59.4865
lclavicle -2.71093e-014 -1.82882e-014
lhumerus -21.0128 -1.57762 90.1878
lradius 18.0218
lwrist 14.9657
lhand -28.2171 -6.37468
lfingers 7.12502
lthumb -1.5956 23.5991
rfemur -34.2202 -3.03891 21.9121
rtibia 65.1398
rfoot -20.9884 -1.51728
rtoes 4.53205
lfemur -36.1901 4.07635 -16.5166
ltibia 63.0572
lfoot -15.945 7.96719
ltoes -10.0105
386
root 0.318497 15.391 2.54921 -7.16866 0.721042 -2.53592
lowerback 9.66335 1.10268 -1.18362
upperback 5.18291 1.37946 1.13306
thorax -0.0938826 0.654775 1.70304
lowerneck -11.6218 -1.19308 -1.31254
upperneck 30.7136 -2.03183 2.0925
head 12.0338 -0.789748 0.740778
rclavicle 8.49804e-015 4.96962e-015
rhumerus -13.7446 -8.39205 -83.6876
rradius 28.586
rwrist 31.89
rhand -26.8642 -29.331
rfingers 7.12502
rthumb -0.288959 -59.3106
lclavicle 8.49804e-015 4.96962e-015
lhumerus -20.8906 -2.58652 90.4543
lradius 18.6321
lwrist 15.9816
lhand -28.4763 -6.6786
lfingers 7.12502
lthumb -1.84594 23.2932
rfemur -33.6733 -2.91782 21.814
rtibia 64.0231
rfoot -20.5972 -1.46394
rtoes 5.19171
lfemur -35.4721 4.02994 -16.6147
ltibia 61.8911
lfoot -15.8651 7.94305
ltoes -9.76056
387
root 0.330465 15.492 2.60499 -6.87484 0.590899 -2.45985
lowerback 9.4817 1.01647 -1.21116
upperback 5.09947 1.26436 1.14706
thorax -0.0776357 0.59674 1.74609
lowerneck -11.588 -1.08288 -1.28832
upperneck 30.8316 -1.8438 1.96627
head 12.0682 -0.71927 0.715303
rclavicle 4.58447e-015 -1.68967e-015
rhumerus -13.4856 -8.078 -83.7443
rradius 28.8564
rwrist 31.7148
rhand -26.7801 -29.112
rfingers 7.12502
rthumb -0.207671 -59.0917
lclavicle 4.58447e-015 -1.68967e-015
lhumerus -20.7502 -3.41549 90.6828
lradius 19.0792
lwrist 16.4652
lhand -28.6186 -6.94526
lfingers 7.12502
lthumb -1.98338 23.0253
rfemur -33.1372 -2.80146 21.7332
rtibia 62.8147
rfoot -20.1266 -1.41756
rtoes 5.94696
lfemur -34.7687 3.95334 -16.7006
ltibia 60.6374
lfoot -15.7582 7.86561
ltoes -9.43872
388
root 0.342173 15.5959 2.65703 -6.53679 0.484339 -2.39921
lowerback 9.29562 0.924009 -1.23748
upperback 4.99839 1.14141 1.17953
thorax -0.0769258 0.534867 1.80773
lowerneck -11.5561 -0.975193 -1.27199
upperneck 30.9571 -1.66051 1.85029
head 12.1069 -0.650596 0.694387
rclavicle -7.47927e-015 -1.03368e-014
rhumerus -13.2997 -7.82045 -83.7569
rradius 29.0937
rwrist 31.6604
rhand -26.7027 -28.909
rfingers 7.12502
rthumb -0.132965 -58.8887
lclavicle -7.47927e-015 -1.03368e-014
lhumerus -20.587 -4.13113 90.8798
lradius 19.3674
lwrist 16.5193
lhand -28.6853 -7.20188
lfingers 7.12502
lthumb -2.04778 22.768
rfemur -32.6445 -2.68922 21.6675
rtibia 61.5394
rfoot -19.5839 -1.38104
rtoes 6.77072
lfemur -34.1064 3.86478 -16.7795
ltibia 59.3185
lfoot -15.6308 7.74439
ltoes -9.10765
389
root 0.354082 15.7008 2.70572 -6.1464 0.384052 -2.35206
lowerback 9.09573 0.830933 -1.24637
upperback 4.87859 1.01932 1.22045
thorax -0.0875513 0.473926 1.86776
lowerneck -11.5308 -0.871789 -1.25893
upperneck 31.084 -1.48608 1.74648
head 12.1482 -0.584809 0.67735
rclavicle -1.20389e-014 -1.21259e-014
rhumerus -13.1886 -7.63192 -83.7382
rradius 29.3023
rwrist 31.6934
rhand -26.644 -28.7482
rfingers 7.12502
rthumb -0.076276 -58.7279
lclavicle -1.20389e-014 -1.21259e-014
lhumerus -20.4077 -4.73648 91.0362
lradius 19.5349
lwrist 16.2208
lhand -28.66 -7.33842
lfingers 7.12502
lthumb -2.02331 22.6317
rfemur -32.2196 -2.57889 21.6198
rtibia 60.2201
rfoot -18.9782 -1.35838
rtoes 7.6413
lfemur -33.5017 3.78559 -16.85
ltibia 57.9545
lfoot -15.4877 7.58887
ltoes -8.82286
390
root 0.36681 15.8052 2.75144 -5.68951 0.266156 -2.30566
lowerback 8.86335 0.743313 -1.234
upperback 4.73934 0.906357 1.25787
thorax -0.100157 0.418173 1.91111
lowerneck -11.5248 -0.768506 -1.22522
upperneck 31.2055 -1.31448 1.63642
head 12.1916 -0.518716 0.653837
rclavicle -5.34234e-015 -3.62782e-015
rhumerus -13.1525 -7.50614 -83.702
rradius 29.4926
rwrist 31.7587
rhand -26.5921 -28.6602
rfingers 7.12502
rthumb -0.0261652 -58.64
lclavicle -5.34234e-015 -3.62782e-015
lhumerus -20.2069 -5.2673 91.1488
lradius 19.6026
lwrist 15.71
lhand -28.5291 -7.28737
lfingers 7.12502
lthumb -1.89694 22.6839
rfemur -31.8938 -2.465 21.5805
rtibia 58.877
rfoot -18.3191 -1.3518
rtoes 8.53118
lfemur -32.9735 3.73837 -16.9249
ltibia 56.5622
lfoot -15.3357 7.41548
ltoes -8.62668
391
root 0.380561 15.9085 2.79482 -5.17202 0.120995 -2.24738
lowerback 8.59939 0.663037 -1.20394
upperback 4.58453 0.804513 1.28218
thorax -0.111266 0.368552 1.92967
lowerneck -11.5199 -0.668172 -1.18717
upperneck 31.2989 -1.15048 1.53543
head 12.2245 -0.454572 0.631752
rclavicle 2.19968e-014 1.55549e-014
rhumerus -13.1827 -7.44231 -83.6557
rradius 29.6552
rwrist 31.8005
rhand -26.5844 -28.5673
rfingers 7.12502
rthumb -0.0186532 -58.547
lclavicle 2.19968e-014 1.55549e-014
lhumerus -19.9901 -5.72325 91.21
lradius 19.6137
lwrist 15.1194
lhand -28.2887 -7.04983
lfingers 7.12502
lthumb -1.66472 22.9234
rfemur -31.6651 -2.34813 21.5369
rtibia 57.5209
rfoot -17.6156 -1.36121
rtoes 9.4393
lfemur -32.5145 3.73413 -17.0165
ltibia 55.1515
lfoot -15.1758 7.23897
ltoes -8.54121
392
root 0.395281 16.01 2.83618 -4.60288 -0.0578193 -2.17579
lowerback 8.30888 0.589717 -1.15864
upperback 4.41768 0.7129 1.29208
thorax -0.120051 0.324509 1.92356
lowerneck -11.5142 -0.568262 -1.14226
upperneck 31.3584 -0.989783 1.43909
head 12.2438 -0.390709 0.609551
rclavicle -1.34801e-015 -9.69075e-016
rhumerus -13.2776 -7.41255 -83.6079
rradius 29.8022
rwrist 31.8054
rhand -26.575 -28.5314
rfingers 7.12502
rthumb -0.00958665 -58.5111
lclavicle -1.34801e-015 -9.69075e-016
lhumerus -19.7637 -6.10783 91.2203
lradius 19.6011
lwrist 14.5858
lhand -27.9325 -6.63304
lfingers 7.12502
lthumb -1.32071 23.3426
rfemur -31.5284 -2.22469 21.4882
rtibia 56.1571
rfoot -16.8752 -1.39046
rtoes 10.4023
lfemur -32.1158 3.78176 -17.1255
ltibia 53.7302
lfoot -15.0148 7.07099
ltoes -8.56809
393
root 0.410916 16.1096 2.87622 -4.00246 -0.275893 -2.08876
lowerback 8.00318 0.524712 -1.10308
upperback 4.24567 0.632764 1.28826
thorax -0.125804 0.286478 1.89616
lowerneck -11.497 -0.468643 -1.11115
upperneck 31.3737 -0.832673 1.36481
head 12.2433 -0.327476 0.597358
rclavicle 2.01037e-015 8.43592e-015
rhumerus -13.4325 -7.4117 -83.5562
rradius 29.9282
rwrist 31.7741
rhand -26.5681 -28.4978
rfingers 7.12502
rthumb -0.0029272 -58.4775
lclavicle 2.01037e-015 8.43592e-015
lhumerus -19.5354 -6.41568 91.1846
lradius 19.5919
lwrist 14.2052
lhand -27.4978 -6.09565
lfingers 7.12502
lthumb -0.900844 23.8822
rfemur -31.4563 -2.09101 21.4316
rtibia 54.7843
rfoot -16.0913 -1.44504
rtoes 11.4153
lfemur -31.7505 3.88472 -17.2535
ltibia 52.3023
lfoot -14.8592 6.92176
ltoes -8.70614
394
root 0.427001 16.207 2.91512 -3.3895 -0.523294 -1.98805
lowerback 7.69715 0.46398 -1.04814
upperback 4.07487 0.557884 1.27646
thorax -0.130043 0.251063 1.86006
lowerneck -11.4683 -0.367313 -1.09438
upperneck 31.3447 -0.673922 1.30513
head 12.2225 -0.263478 0.59312
rclavicle 3.54085e-015 -6.85807e-015
rhumerus -13.6359 -7.41613 -83.4973
rradius 30.0311
rwrist 31.7011
rhand -26.5497 -28.4811
rfingers 7.12502
rthumb 0.0148587 -58.4608
lclavicle 3.54085e-015 -6.85807e-015
lhumerus -19.3083 -6.67164 91.1165
lradius 19.6
lwrist 14.064
lhand -27.0238 -5.5297
lfingers 7.12502
lthumb -0.443088 24.4496
rfemur -31.4222 -1.94637 21.3654
rtibia 53.401
rfoot -15.2758 -1.51758
rtoes 12.5159
lfemur -31.3998 4.03577 -17.3988
ltibia 50.8716
lfoot -14.7111 6.79228
ltoes -8.94572
395
root 0.443052 16.3018 2.95301 -2.78089 -0.791086 -1.88016
lowerback 7.40715 0.405728 -0.997571
upperback 3.91012 0.485618 1.26268
thorax -0.136795 0.216827 1.82371
lowerneck -11.4302 -0.264419 -1.09015
upperneck 31.2686 -0.513883 1.25874
head 12.181 -0.198718 0.595922
rclavicle 3.75827e-015 5.06901e-015
rhumerus -13.8815 -7.44676 -83.4245
rradius 30.1057
rwrist 31.6501
rhand -26.5269 -28.4507
rfingers 7.12502
rthumb 0.0368477 -58.4304
lclavicle 3.75827e-015 5.06901e-015
lhumerus -19.0873 -6.86133 91.0214
lradius 19.6421
lwrist 14.1425
lhand -26.5324 -4.98434
lfingers 7.12502
lthumb 0.0314991 24.9954
rfemur -31.3986 -1.78625 21.2935
rtibia 52.0076
rfoot -14.4393 -1.60947
rtoes 13.6759
lfemur -31.0502 4.22891 -17.5541
ltibia 49.4431
lfoot -14.5671 6.67537
ltoes -9.25613
396
root 0.458749 16.3932 2.99011 -2.18343 -1.0708 -1.76024
lowerback 7.13329 0.346223 -0.966772
upperback 3.75582 0.41012 1.24953
thorax -0.141518 0.180564 1.79898
lowerneck -11.3969 -0.156176 -1.08612
upperneck 31.1572 -0.344549 1.20752
head 12.1262 -0.130342 0.597875
rclavicle -8.60986e-015 1.2275e-014
rhumerus -14.1603 -7.47801 -83.3372
rradius 30.1578
rwrist 31.6028
rhand -26.4731 -28.4334
rfingers 7.12502
rthumb 0.0887889 -58.4131
lclavicle -8.60986e-015 1.2275e-014
lhumerus -18.8672 -7.03138 90.9122
lradius 19.7028
lwrist 14.4319
lhand -26.0877 -4.56726
lfingers 7.12502
lthumb 0.46103 25.412
rfemur -31.3682 -1.60695 21.2046
rtibia 50.6106
rfoot -13.601 -1.71839
rtoes 14.8597
lfemur -30.6997 4.45621 -17.7263
ltibia 48.0241
lfoot -14.4154 6.56478
ltoes -9.61018
